<svg xmlns="http://www.w3.org/2000/svg" viewBox="0 0 32 32">
  <g clip-path="url(#a)">
    <path d="M16 0C7.1633 0 0 7.1633 0 16s7.1633 16 16 16 16-7.1633 16-16S24.8367 0 16 0Zm6.1533 18.0517s1.415 1.3966 1.7634 2.045c.01.0133.015.0266.0183.0333.1417.2383.175.4233.105.5617-.1167.23-.5167.3433-.6533.3533h-2.5c-.1734 0-.5367-.045-.9767-.3483-.3383-.2367-.6717-.625-.9967-1.0034-.485-.5633-.905-1.05-1.3283-1.05a.5093.5093 0 0 0-.1583.025c-.32.1034-.73.56-.73 1.7767 0 .38-.3.5983-.5117.5983H15.04c-.39 0-2.4217-.1366-4.2217-2.035-2.2033-2.325-4.1866-6.9883-4.2033-7.0316-.125-.3017.1333-.4634.415-.4634h2.525c.3367 0 .4467.205.5233.3867.09.2117.42 1.0533.9617 2 .8783 1.5433 1.4167 2.17 1.8483 2.17a.5.5 0 0 0 .2317-.06c.5633-.3133.4583-2.3217.4333-2.7383 0-.0784-.0016-.8984-.29-1.2917-.2066-.285-.5583-.3933-.7716-.4333a.916.916 0 0 1 .3316-.2817c.3867-.1933 1.0834-.2217 1.775-.2217h.385c.75.01.9434.0584 1.215.1267.55.1317.5617.4867.5134 1.7017-.015.345-.03.735-.03 1.195 0 .1-.005.2066-.005.32-.0167.6183-.0367 1.32.4 1.6083a.3595.3595 0 0 0 .19.055c.1516 0 .6083 0 1.845-2.1217a16.1879 16.1879 0 0 0 .9916-2.1233c.025-.0433.0984-.1767.185-.2283a.4444.4444 0 0 1 .2067-.0484h2.9683c.3234 0 .545.0484.5867.1734.0733.1983-.0133.8033-1.3683 2.6383l-.605.7983c-1.2284 1.61-1.2284 1.6917.0766 2.9134Z"/>
  </g>
  <defs>
    <clipPath id="a">
      <path fill="#fff" d="M0 0h32v32H0z"/>
    </clipPath>
  </defs>
</svg>
