<svg xmlns="http://www.w3.org/2000/svg" viewBox="0 0 32 32">
  <g clip-path="url(#a)">
    <path d="M16 0a15.664 15.664 0 0 0-6.123 1.2482c-1.941.824-3.705 2.0318-5.1906 3.5544C1.6857 7.8777 0 12.0484 0 16.3972c0 7.2476 4.592 13.3966 10.944 15.5774.8.1312 1.056-.3771 1.056-.8199v-2.7711c-4.432.9838-5.376-2.1972-5.376-2.1972-.736-1.9021-1.776-2.4104-1.776-2.4104-1.456-1.0166.112-.9838.112-.9838 1.6.1147 2.448 1.6889 2.448 1.6889 1.392 2.4923 3.744 1.7545 4.656 1.3609.144-1.0658.56-1.7873 1.008-2.1972-3.552-.4099-7.28-1.8201-7.28-8.0674 0-1.8201.608-3.2795 1.648-4.4437-.16-.4099-.72-2.1152.16-4.3288 0 0 1.344-.4428 4.4 1.6725 1.264-.3608 2.64-.5411 4-.5411 1.36 0 2.736.1803 4 .541 3.056-2.1152 4.4-1.6724 4.4-1.6724.88 2.2136.32 3.9189.16 4.3288 1.04 1.1642 1.648 2.6236 1.648 4.4437 0 6.2637-3.744 7.6411-7.312 8.051.576.5083 1.104 1.5086 1.104 3.0335v4.4928c0 .4428.256.9675 1.072.8199C27.424 29.7774 32 23.6448 32 16.3972c0-2.1533-.4139-4.2855-1.2179-6.2749-.8041-1.9894-1.9827-3.797-3.4684-5.3197-1.4857-1.5226-3.2496-2.7304-5.1908-3.5544A15.6637 15.6637 0 0 0 16 0Z"/>
  </g>
  <defs>
    <clipPath id="a">
      <path fill="#fff" d="M0 0h32v32H0z"/>
    </clipPath>
  </defs>
</svg>
